{"title":"A.Most.Wanted.Man.2014.720p.BRRip.x264.AC3-WiNTeaM","uid":11300002,"size":3180643133,"categoryP":"video","categoryS":"hd___movies","magnet":"?xt=urn:btih:02e0816cad9b6eb67567da532f531acfbd0b9036&amp;dn=A.Most.Wanted.Man.2014.720p.BRRip.x264.AC3-WiNTeaM&amp;tr=udp%3A%2F%2Ftracker.openbittorrent.com%3A80&amp;tr=udp%3A%2F%2Fopen.demonii.com%3A1337&amp;tr=udp%3A%2F%2Ftracker.coppersurfer.tk%3A6969&amp;tr=udp%3A%2F%2Fexodus.desync.com%3A6969","seeders":3,"leechers":1,"uploader":"TvTeam","files":11,"time":1414418478,"description":" &lt;a href=&quot;http://www.torrenting.com&quot; rel=&quot;nofollow&quot; target=&quot;_NEW&quot;&gt;http://www.torrenting.com&lt;/a&gt;\n\nSign up is OPEN - for time being. Come and have fun.\n\n\n------------------------------------------------------------------------\n    __          ___ _   _ _______         __  __ \n             / (_)  | |__   __|       |  /  |\n        /  / / _|  | |  | | ___  __ _|   / |\n       /  / / | | . ` |  | |/ _ / _` | |/| |\n         /  /  | | |  |  | |  __/ (_| | |  | |\n        /  /   |_|_| _|  |_|___|__,_|_|  |_|      \n                                       since 2013\n    _____________________________________________\n    Proudly Presents:\n\nA.Most.Wanted.Man.2014.720p.BRRip.x264.AC3-WiNTeaM\n\nFormat                                   : Matroska\nFormat version                           : Version 4 / Version 2\nFile size                                : 2.93 GiB\nDuration                                 : 2h 2mn\nOverall bit rate                         : 3 425 Kbps\nMovie name                               : A Most Wanted Man (2014)\nEncoded date                             : UTC 2014-10-26 22:46:30\nWriting application                      : mkvmerge v7.3.0 ('Nouages') 64bit built on Oct 22 2014 18:53:34\nWriting library                          : libebml v1.3.0 + libmatroska v1.4.1\nRelease Name                             : A.Most.Wanted.Man.2014.720p.BRRip.x264.AC3-WiNTeaM\nEncoder                                  : zapTT@WiNTeaM\n\n\nVideo\nID                                       : 1\nFormat                                   : AVC\nFormat/Info                              : Advanced Video Codec\nFormat profile                           : &lt;a class=&quot;__cf_email__&quot; href=&quot;/cdn-cgi/l/email-protection&quot; data-cfemail=&quot;3179585659717d051f00&quot;&gt;[email&amp;#160;protected]&lt;/a&gt;&lt;script cf-hash='f9e31' type=&quot;text/javascript&quot;&gt;\n/* &lt;![CDATA[ */!function(){try{var t=&quot;currentScript&quot;in document?document.currentScript:function(){for(var t=document.getElementsByTagName(&quot;script&quot;),e=t.length;e--;)if(t[e].getAttribute(&quot;cf-hash&quot;))return t[e]}();if(t&amp;&amp;t.previousSibling){var e,r,n,i,c=t.previousSibling,a=c.getAttribute(&quot;data-cfemail&quot;);if(a){for(e=&quot;&quot;,r=parseInt(a.substr(0,2),16),n=2;a.length-n;n+=2)i=parseInt(a.substr(n,2),16)^r,e+=String.fromCharCode(i);e=document.createTextNode(e),c.parentNode.replaceChild(e,c)}}}catch(u){}}();/* ]]&gt; */&lt;/script&gt;\nFormat settings, CABAC                   : Yes\nFormat settings, ReFrames                : 8 frames\nCodec ID                                 : V_MPEG4/ISO/AVC\nDuration                                 : 2h 2mn\nBit rate                                 : 3 000 Kbps\nWidth                                    : 1 280 pixels\nHeight                                   : 544 pixels\nDisplay aspect ratio                     : 2.35:1\nFrame rate mode                          : Constant\nFrame rate                               : 23.976 fps\nColor space                              : YUV\nChroma subsampling                       : 4:2:0\nBit depth                                : 8 bits\nScan type                                : Progressive\nBits/(Pixel*Frame)                       : 0.180\nStream size                              : 2.49 GiB (85%)\nWriting library                          : x264 core 142 r2431 ac76440\nEncoding settings                        : cabac=1 / ref=8 / deblock=1:-3:-2 / analyse=0x3:0x133 / me=umh / subme=9 / psy=1 / psy_rd=1.00:0.00 / mixed_ref=1 / me_range=32 / chroma_me=1 / trellis=2 / 8x8dct=1 / cqm=0 / deadzone=21,11 / fast_pskip=1 / chroma_qp_offset=-1 / threads=6 / lookahead_threads=1 / sliced_threads=0 / nr=250 / decimate=1 / interlaced=0 / bluray_compat=0 / constrained_intra=0 / bframes=4 / b_pyramid=2 / b_adapt=2 / b_bias=0 / direct=3 / weightb=1 / open_gop=0 / weightp=2 / keyint=240 / keyint_min=23 / scenecut=45 / intra_refresh=0 / rc_lookahead=60 / rc=2pass / mbtree=1 / bitrate=3000 / ratetol=1.0 / qcomp=0.60 / qpmin=0 / qpmax=69 / qpstep=4 / cplxblur=20.0 / qblur=0.5 / vbv_maxrate=40000 / vbv_bufsize=30000 / nal_hrd=none / filler=0 / ip_ratio=1.40 / aq=1:0.90\nLanguage                                 : English\nDefault                                  : Yes\nForced                                   : No\nColor primaries                          : BT.709\nTransfer characteristics                 : BT.709\nMatrix coefficients                      : BT.709\n\n\nAudio\nID                                       : 2\nFormat                                   : AC-3\nFormat/Info                              : Audio Coding 3\nMode extension                           : CM (complete main)\nFormat settings, Endianness              : Big\nCodec ID                                 : A_AC3\nDuration                                 : 2h 2mn\nBit rate mode                            : Constant\nBit rate                                 : 448 Kbps\nChannel(s)                               : 6 channels\nChannel positions                        : Front: L C R, Side: L R, LFE\nSampling rate                            : 48.0 KHz\nBit depth                                : 16 bits\nCompression mode                         : Lossy\nStream size                              : 392 MiB (13%)\nLanguage                                 : English\nDefault                                  : Yes\nForced                                   : No\n\nText #1\nID                                       : 3\nFormat                                   : UTF-8\nCodec ID                                 : S_TEXT/UTF8\nCodec ID/Info                            : UTF-8 Plain Text\nLanguage                                 : English\nDefault                                  : No\nForced                                   : No\n\nText #2\nID                                       : 4\nFormat                                   : UTF-8\nCodec ID                                 : S_TEXT/UTF8\nCodec ID/Info                            : UTF-8 Plain Text\nTitle                                    : SDH\nLanguage                                 : English\nDefault                                  : No\nForced                                   : No\n\nText #3\nID                                       : 5\nFormat                                   : UTF-8\nCodec ID                                 : S_TEXT/UTF8\nCodec ID/Info                            : UTF-8 Plain Text\nLanguage                                 : Spanish\nDefault                                  : No\nForced                                   : No\n\n    ...................................................................\n\n    Ripper Notes.........: Thanks to VietHD\n                           Source: A.Most.Wanted.Man.2014.1080p.BluRay.DTS.x264-VietHD\n\n                           Seed, Share, but don't forget to keep the credits ;) \n                               \n                           Respect our work\n\n    ...................................................................\n\n    Group Greets.........: FLAWL3SS * ViSiON * D-ZON3 * CHD * DAA\n                           AMIABLE * DIAMOND * FraMeSToR * LEGiON\n                           CORE * KRaLiMaRKo * iNViNCiBLE * SPARKS\n\n   ___________________________________________________________________________________________\n   \n    Group Notes.....: We are currently Looking for Portuguese Android Modders.\n    If you are interested, please contact us @ winteam [@] inboxcom\n\n    Neste momento procuramos Android Modders Portugueses.\n    Pedimos aos interessados que nos contactem para winteam [@] inboxcom\n    __________________________________________________________________________________________\n\n                           *** WiNTeaM  / Since 2013 ***","torrent":{"xt":"urn:btih:02e0816cad9b6eb67567da532f531acfbd0b9036","amp;dn":"A.Most.Wanted.Man.2014.720p.BRRip.x264.AC3-WiNTeaM","amp;tr":["udp%3A%2F%2Ftracker.openbittorrent.com%3A80","udp%3A%2F%2Fopen.demonii.com%3A1337","udp%3A%2F%2Ftracker.coppersurfer.tk%3A6969","udp%3A%2F%2Fexodus.desync.com%3A6969"],"infoHash":"02e0816cad9b6eb67567da532f531acfbd0b9036","infoHashBuffer":{"type":"Buffer","data":[2,224,129,108,173,155,110,182,117,103,218,83,47,83,26,207,189,11,144,54]},"announce":[],"urlList":[]}}